<svg width="9" height="9" viewBox="0 0 9 9" fill="none" xmlns="http://www.w3.org/2000/svg">
<path d="M8.35134 0.749976C8.35134 0.335762 8.01555 -2.38788e-05 7.60134 -2.36614e-05L0.85134 -2.29449e-05C0.437126 -2.28751e-05 0.10134 0.335763 0.10134 0.749977C0.10134 1.16419 0.437126 1.49998 0.85134 1.49998L6.85134 1.49998L6.85134 7.49998C6.85134 7.91419 7.18713 8.24998 7.60134 8.24998C8.01556 8.24998 8.35134 7.91419 8.35134 7.49998L8.35134 0.749976ZM0.530273 7.82104L1.0606 8.35137L8.13167 1.28031L7.60134 0.749976L7.07101 0.219646L-5.67287e-05 7.29071L0.530273 7.82104Z" fill="white"/>
</svg>
