<svg width="165" height="35" viewBox="0 0 165 35" fill="none" xmlns="http://www.w3.org/2000/svg">
<path d="M11.6208 23.2566C11.6208 23.1675 11.6041 23.0951 11.5819 23.0172C11.5819 23.0116 11.5874 23.0116 11.5874 23.0005C11.7043 22.7612 11.6431 22.5274 11.5373 22.3047C11.5318 22.2324 11.5151 22.1656 11.4872 22.1266C11.3091 21.7036 11.1867 21.5366 11.1087 21.2416C11.0531 21.0356 10.9473 20.9967 10.8527 21.0523C10.8527 21.0467 10.8471 21.0356 10.8471 21.03C10.8415 21.0245 10.8415 21.0134 10.8304 21.0078C10.8137 20.941 10.7803 20.8798 10.7247 20.8352C10.7024 20.8297 10.6857 20.8185 10.669 20.8297C10.5298 20.7128 10.374 20.6237 10.2293 20.5291C10.1012 20.4623 9.97321 20.3565 9.84518 20.2842C9.80622 20.2452 9.74499 20.2118 9.68376 20.2007C9.68376 20.2007 9.68376 20.2007 9.6782 20.2007C9.53347 20.056 9.29969 19.8556 9.14885 19.9725C9.09318 19.9502 9.03195 19.9335 8.97629 19.9057C8.8594 19.85 8.74808 19.8055 8.62562 19.8055C8.60335 19.8055 8.56996 19.811 8.54212 19.8389C8.51986 19.8611 8.49203 19.8945 8.47533 19.9279C8.45863 19.9279 8.43636 19.9335 8.41967 19.9446C8.3807 19.9669 8.35287 20.0114 8.33061 20.0448C8.19145 20.0059 8.01889 19.9224 7.90757 20.0393C7.89087 20.0615 7.87417 20.0949 7.85747 20.1228C7.79068 20.1283 7.72945 20.1394 7.65152 20.1561C7.62926 20.1561 7.61256 20.1617 7.58473 20.1617C7.48454 20.1784 7.37878 20.1951 7.28415 20.2174C7.15613 20.2007 7.02254 20.184 6.89451 20.2229C6.82215 20.273 6.77205 20.3454 6.73866 20.4289C6.72196 20.4456 6.70526 20.4623 6.68856 20.479C6.63846 20.4734 6.5828 20.4957 6.51601 20.5625C6.33789 20.7239 6.16533 20.8909 5.98666 21.0523C5.9143 21.0189 5.84193 21.0746 5.7974 21.1581C5.78071 21.197 5.76401 21.2416 5.75844 21.2805C5.75287 21.2972 5.73617 21.3139 5.72504 21.3306C5.66938 21.3084 5.60258 21.3362 5.53579 21.4531C5.48569 21.57 5.46343 21.6924 5.44673 21.8038C5.43003 21.8372 5.41333 21.8706 5.39663 21.8873C5.35767 21.9596 5.32427 22.032 5.27974 22.1099C5.22408 22.0932 5.17398 22.1433 5.14058 22.1823C5.06822 22.2546 5.01813 22.3548 5.00143 22.4606C4.95133 22.878 4.99586 23.3122 5.07379 23.7297C5.09606 23.802 5.11275 23.8855 5.12945 23.969C5.12389 24.0247 5.12945 24.0915 5.13502 24.1583C5.11275 24.2974 5.13502 24.4589 5.16842 24.5925C5.25748 24.8318 5.37437 25.06 5.49682 25.2771C5.53579 25.394 5.58032 25.5053 5.62485 25.6111C5.69164 25.7335 5.74731 25.7836 5.80297 25.7836C5.86976 25.8838 5.93099 25.9896 6.02562 26.0508C6.05902 26.0675 6.09241 26.0675 6.11468 26.0564C6.11468 26.0564 6.12025 26.0564 6.12025 26.0619C6.17591 26.1176 6.23714 26.1788 6.2928 26.2234V26.2289C6.36516 26.3124 6.45422 26.3848 6.53772 26.4571C6.64347 26.5406 6.91622 26.7689 7.06707 26.7243C7.07263 26.7243 7.07263 26.7299 7.08376 26.7299C7.21179 26.8023 7.39548 27.0138 7.53463 26.8691C7.5402 26.8635 7.5402 26.8524 7.55133 26.8468C7.64039 26.8524 7.72945 26.8802 7.81851 26.8969C8.00776 26.9525 8.19702 26.9971 8.39239 27.0026C8.41466 27.036 8.44249 27.0694 8.47589 27.0917C8.57608 27.1418 8.68184 27.0416 8.75977 27.0026C8.83213 26.9525 8.91562 26.9024 9.00468 26.8412C9.02138 26.8635 9.02694 26.8913 9.04364 26.9136C9.20506 27.1084 9.58413 26.7243 9.72328 26.6297C9.84018 26.5239 9.96263 26.4238 10.074 26.318C10.1797 26.3737 10.3022 26.2957 10.4246 26.1621C10.5638 26.4627 10.7697 26.2512 10.9089 25.9729C10.9813 25.8003 11.0481 25.6222 11.0981 25.4441C11.1037 25.4385 11.1148 25.4385 11.1148 25.4274C11.3765 25.1101 11.4099 24.6926 11.4655 24.2919C11.4878 24.1917 11.5156 24.1026 11.5212 24.008V24.0024C11.588 23.7909 11.6492 23.5794 11.6102 23.3567C11.6375 23.3233 11.632 23.2899 11.6208 23.2566ZM10.6629 23.6462C10.5571 23.9579 10.4736 24.2696 10.4068 24.5758C10.4124 24.5257 10.4291 24.4589 10.4124 24.5535C10.3957 24.6203 10.379 24.6815 10.379 24.7594C10.3456 24.7984 10.3233 24.8485 10.2955 24.8986C10.2732 24.9209 10.2565 24.9376 10.2287 24.9654C9.87803 25.0934 9.58802 25.3662 9.37094 25.6779C9.36537 25.6779 9.35424 25.6779 9.34867 25.6779C9.17055 25.6779 8.998 25.7447 8.82489 25.7781C8.76923 25.7836 8.708 25.8003 8.66347 25.8115C8.6412 25.8059 8.6245 25.7948 8.59667 25.7892C8.40185 25.7224 8.19034 25.7001 7.98383 25.7168C7.88364 25.7168 7.80571 25.7502 7.74448 25.817C7.53296 25.7447 7.31031 25.6779 7.11494 25.6779C6.98691 25.5944 6.85332 25.5053 6.71417 25.433C6.6919 25.4163 6.66407 25.3996 6.63067 25.394C6.57501 25.2771 6.49152 25.1658 6.41915 25.06C6.38576 25.0099 6.35236 24.9598 6.31896 24.9153C6.3134 24.8986 6.2967 24.8819 6.28556 24.8652C6.28 24.8596 6.28 24.8485 6.26887 24.8429C6.25217 24.8095 6.2299 24.7761 6.2132 24.7427C6.10744 24.5646 6.03508 24.4756 5.98499 24.3976C5.97942 24.3754 5.96272 24.3587 5.95159 24.3253C5.93489 24.2863 5.91819 24.2251 5.89593 24.1972C5.89036 24.1639 5.87923 24.1416 5.87366 24.1082V24.1026C5.87366 23.9245 5.8514 23.7519 5.82357 23.5738C5.82357 23.5571 5.82356 23.5404 5.82913 23.5237C5.88479 23.3456 5.93489 23.1619 5.96829 22.9782C5.98499 23.0172 6.00725 23.0617 6.03508 23.1007C6.2466 23.3233 6.38576 22.9059 6.45812 22.7556C6.58614 22.4884 6.71417 22.2157 6.82549 21.9485C6.92568 21.7091 7.08154 21.492 7.1372 21.236C7.32645 21.2527 7.58807 21.1636 7.76674 21.1135C7.81684 21.1135 7.8558 21.1135 7.9059 21.1135C7.97826 21.1135 8.04506 21.1191 8.11742 21.1191C8.22318 21.1191 8.32337 21.1191 8.42913 21.1191C8.45139 21.1191 8.46809 21.1191 8.49592 21.1191C8.49592 21.1191 8.49592 21.1191 8.50149 21.1191C8.53489 21.1191 8.56829 21.1191 8.59055 21.0968C8.61282 21.0801 8.64065 21.0634 8.65734 21.03C8.7798 21.0857 8.93566 21.1469 9.01915 21.03C9.12491 21.0523 9.2251 21.069 9.33086 21.0801C9.34756 21.0801 9.36426 21.0857 9.36983 21.0857C9.36983 21.0857 9.36983 21.0857 9.37539 21.0857C9.39209 21.0857 9.40879 21.0857 9.42549 21.0913C9.45889 21.1135 9.49228 21.1414 9.52568 21.1469C9.50342 21.3585 9.59804 21.5644 9.7873 21.659C9.87636 21.7091 9.96542 21.7759 10.0545 21.8316C10.1268 21.9207 10.2103 22.0041 10.2827 22.0876C10.3161 22.1266 10.3551 22.1711 10.3996 22.2045C10.4385 22.2212 10.4831 22.2101 10.5053 22.1878C10.5109 22.455 10.5944 22.7333 10.6835 22.9894C10.7002 23.0395 10.7224 23.0896 10.7503 23.1452C10.6963 23.2733 10.674 23.4792 10.6629 23.6462Z" fill="#F2A963"/>
<path d="M17.5913 28.8896C17.5858 28.7727 17.5746 28.6614 17.5691 28.5445C17.5691 28.5222 17.5635 28.4888 17.5635 28.461C17.5635 28.4554 17.5635 28.4387 17.5635 28.4276C17.5635 28.3775 17.5635 28.3219 17.5635 28.2718C17.5635 28.2217 17.5579 28.1827 17.5468 28.1326C17.5691 28.0101 17.5691 27.8765 17.5468 27.7875C17.4911 27.5426 17.3242 27.3311 17.2017 27.1195C17.1627 27.0639 17.1126 26.9915 17.0625 26.9136C17.0403 26.8579 17.0069 26.7967 16.9735 26.7522C16.9512 26.7299 16.9234 26.7021 16.9011 26.6965C16.8789 26.6575 16.851 26.6074 16.8176 26.5685C16.7787 26.5128 16.7007 26.5017 16.6562 26.5351C16.6395 26.5017 16.6228 26.4683 16.6061 26.4349C16.5504 26.3848 16.5004 26.3792 16.4614 26.3959C16.4558 26.3904 16.4447 26.3737 16.4391 26.3625C16.4057 26.279 16.3556 26.2178 16.2944 26.1677C16.1385 26.0787 15.9103 26.0063 15.6816 25.9785C15.6649 25.9618 15.6593 25.9562 15.6426 25.9395C15.5925 25.9172 15.5424 25.9005 15.4867 25.8894C15.4366 25.8337 15.3476 25.8337 15.2752 25.8337C15.2196 25.8337 15.1583 25.8337 15.1027 25.8393C15.086 25.8337 15.0693 25.8226 15.047 25.8226C14.7687 25.7725 14.5065 25.9284 14.2839 26.0787C14.2505 26.0953 14.2171 26.1176 14.1948 26.1454C14.1391 26.151 14.0724 26.1844 14 26.2456C13.9777 26.2122 13.9332 26.1955 13.8942 26.1788C13.8775 26.1788 13.8608 26.1844 13.8441 26.1955C13.8274 26.19 13.8052 26.1788 13.7773 26.1733C13.705 26.1733 13.6604 26.2456 13.6159 26.2902C13.5324 26.3792 13.4601 26.4794 13.3877 26.5685C13.3654 26.5907 13.3487 26.6241 13.3209 26.652C13.204 26.6353 13.1094 26.8245 13.037 26.9804C12.9814 27.0694 12.9313 27.1585 12.8756 27.2476C12.87 27.2531 12.87 27.2698 12.8589 27.281L12.8533 27.2865C12.8199 27.3032 12.7865 27.3422 12.7643 27.4034V27.409C12.7643 27.4146 12.7587 27.4257 12.7587 27.4312V27.4368C12.7253 27.4869 12.6752 27.5426 12.6196 27.6316C12.5528 27.7541 12.5361 27.8933 12.5528 28.0324C12.5138 28.1771 12.486 28.333 12.486 28.4888C12.486 28.5111 12.486 28.5278 12.486 28.5556C12.3301 28.5946 12.2633 28.9341 12.3412 29.2403C12.3579 29.3071 12.3913 29.3961 12.4414 29.5075C12.4359 29.719 12.5082 29.9249 12.6474 30.0864C12.653 30.0919 12.6474 30.0864 12.6307 30.0641C12.6251 30.0585 12.6251 30.0474 12.614 30.0418C12.6864 30.1587 12.7698 30.27 12.8422 30.3869C12.8478 30.4036 12.8589 30.4092 12.8645 30.4259V30.4315C12.87 30.437 12.87 30.437 12.8812 30.4482C12.8867 30.4649 12.8867 30.4816 12.8979 30.4983C12.9146 30.5484 12.9313 30.5873 12.9647 30.6263C12.9647 30.6263 12.9647 30.6263 12.9702 30.6318C13.0092 30.6708 13.0426 30.7153 13.0871 30.7543C13.1706 30.899 13.332 31.105 13.4712 31.1606C13.4879 31.194 13.5102 31.233 13.538 31.2664C13.7161 31.5113 14.0111 31.734 14.1898 31.5948C14.2288 31.6338 14.2733 31.6783 14.3178 31.7117C14.4737 31.8342 14.6963 31.9511 14.8917 31.8731C14.9084 31.8564 14.9251 31.8397 14.9418 31.823C14.9919 31.823 15.042 31.823 15.0865 31.8063C15.0921 31.8008 15.1032 31.7896 15.1199 31.7841C15.1422 31.7841 15.17 31.7841 15.1923 31.7841C15.2257 31.7896 15.2646 31.8063 15.3147 31.8175C15.4205 31.8397 15.5263 31.8731 15.6431 31.8898C15.6654 31.8954 15.6932 31.9065 15.7155 31.9065C15.7211 31.9065 15.7378 31.9121 15.7489 31.9121V31.9065C15.8658 31.901 15.927 31.7785 15.9437 31.6393C15.966 31.6226 15.9827 31.6004 15.9994 31.5725C16.005 31.5725 16.0161 31.5781 16.0217 31.5892C16.1051 31.6115 16.1664 31.5503 16.2332 31.4835C16.2387 31.4835 16.2387 31.4835 16.2499 31.4779C16.3501 31.4056 16.4391 31.3221 16.517 31.2386L16.5226 31.233C16.6952 31.0938 16.8844 30.938 16.9957 30.7599C17.0013 30.7543 17.0124 30.7432 17.018 30.7432C17.1182 30.6541 17.1961 30.5539 17.224 30.4315C17.2462 30.4092 17.2629 30.3814 17.2908 30.3591C17.3965 30.2366 17.4522 30.0474 17.4355 29.8748C17.4522 29.8359 17.4689 29.7858 17.4744 29.7357C17.4911 29.7301 17.5134 29.7134 17.5301 29.6856C17.6025 29.5798 17.6303 29.4629 17.6303 29.3405C17.6303 29.1791 17.6136 29.0343 17.5913 28.8896ZM13.1361 28.8785C13.1528 28.7004 13.1584 28.5167 13.1584 28.3386C13.1639 28.2105 13.1806 28.0714 13.1806 27.9322C13.1862 27.9266 13.1973 27.9155 13.2029 27.9099C13.292 27.8098 13.3643 27.7207 13.4423 27.6428C13.4923 27.7096 13.5647 27.7485 13.6538 27.6817C13.8096 27.5593 13.9488 27.4201 14.0712 27.2643C14.1937 27.2587 14.3384 27.1752 14.472 27.0861C14.4943 27.0861 14.5221 27.0861 14.5555 27.0861C14.6446 27.0694 14.7336 27.036 14.8171 26.9971C14.8561 27.0193 14.9006 27.036 14.9451 27.0472C15.101 27.0694 15.2624 27.0639 15.396 27.0082C15.4517 27.0806 15.524 27.1474 15.6187 27.203C15.7912 27.3311 16.0194 27.4869 16.2426 27.4702C16.2927 27.5036 16.3484 27.5259 16.4152 27.537C16.4542 27.6038 16.4987 27.6762 16.5599 27.7151C16.5766 27.7151 16.5822 27.7151 16.5989 27.7151C16.649 27.7986 16.7046 27.871 16.7547 27.9433C16.777 27.9823 16.8048 28.0324 16.8271 28.0714C16.7603 28.294 16.8215 28.6503 16.8104 28.8172C16.8104 28.8339 16.8104 28.9564 16.816 28.9453C16.816 28.9508 16.816 28.9508 16.816 28.962C16.816 28.9675 16.816 28.9787 16.816 28.9787C16.816 29.0009 16.816 29.0288 16.816 29.051C16.8104 29.0566 16.8104 29.0677 16.7993 29.0733C16.4987 29.5297 16.4708 29.7858 16.2922 30.1365C16.2922 30.142 16.2922 30.142 16.2922 30.1531C16.2087 30.2199 16.1363 30.2923 16.064 30.3647C16.0584 30.3647 16.0473 30.3647 16.0417 30.3702C15.9025 30.4036 15.6966 30.5484 15.529 30.7042C15.4956 30.7209 15.4567 30.7376 15.4233 30.7543C15.2006 30.7209 14.9835 30.6708 14.7603 30.7153C14.7548 30.7209 14.7436 30.732 14.7381 30.732C14.7325 30.7265 14.7158 30.7265 14.7047 30.7153H14.6991C14.6267 30.6597 14.5433 30.5984 14.4542 30.5595C14.2427 30.4148 13.9699 30.2422 13.7579 30.2255C13.7245 30.2032 13.6911 30.1754 13.6577 30.1531C13.5742 30.0975 13.4851 30.0307 13.396 29.9806C13.396 29.9416 13.396 29.8971 13.3905 29.8581C13.3181 29.5464 13.2513 29.6188 13.1456 29.3516C13.1456 29.346 13.14 29.346 13.14 29.3349C13.1623 29.1902 13.1456 29.0343 13.1567 28.8785C13.1417 28.7727 13.1417 28.756 13.1361 28.8785Z" fill="#F2A963"/>
<path d="M23.9346 28.0936C23.8956 27.9378 23.7287 27.6372 23.5672 27.5815C23.5895 27.5315 23.5895 27.4591 23.5895 27.409C23.5895 27.2921 23.5171 27.1975 23.417 27.1529C23.3502 27.1196 23.2889 27.0862 23.2277 27.0472C23.1442 26.9247 23.0217 26.8357 22.8993 26.7522C22.8436 26.7188 22.7935 26.6854 22.7379 26.652C22.7323 26.6464 22.7156 26.6297 22.7045 26.6186C22.6822 26.613 22.6544 26.5963 22.6321 26.5852C22.5097 26.5184 22.3705 26.4683 22.2313 26.4572C22.2258 26.4572 22.2258 26.4572 22.2146 26.4627C22.1812 26.4572 22.1478 26.446 22.1144 26.4572C22.1089 26.4572 22.1089 26.4572 22.0977 26.4516C22.0421 26.4572 21.992 26.4683 21.9419 26.485C21.7304 26.4794 21.5244 26.5017 21.3958 26.6019C21.3736 26.5796 21.3402 26.5518 21.2957 26.5462C21.24 26.5518 21.1788 26.5685 21.1231 26.5963C20.9505 26.4516 20.6388 26.7744 20.4602 26.9748C20.36 27.0305 20.2653 27.0973 20.1763 27.1641C20.1596 27.1696 20.1429 27.1808 20.1262 27.1975C20.0037 27.281 19.8479 27.3589 19.8145 27.5148C19.8089 27.5315 19.8089 27.5537 19.7978 27.5704C19.7644 27.5871 19.7421 27.6205 19.7087 27.6762C19.653 27.8042 19.6364 27.9545 19.6364 28.0992C19.5306 28.3664 19.5696 28.6725 19.5807 28.9564C19.5807 28.9731 19.5807 28.9898 19.5751 29.0065C19.5529 29.1846 19.6085 29.3516 19.6976 29.4963C19.8033 29.8248 19.9759 30.1365 20.2548 30.2422C20.2603 30.2422 20.2715 30.2367 20.277 30.2367C20.316 30.2701 20.3494 30.2923 20.3939 30.3257C20.3995 30.3313 20.4162 30.348 20.4273 30.3591C20.5164 30.4315 20.6388 30.5985 20.7557 30.5539C20.7613 30.5595 20.7724 30.5762 20.778 30.5873C20.8671 30.6764 21.0006 30.6708 21.1231 30.6708C21.1398 30.6764 21.1621 30.6764 21.1788 30.6875C21.1843 30.6931 21.1843 30.7042 21.1955 30.7098C21.2122 30.732 21.2344 30.7487 21.2678 30.7599C21.3012 30.81 21.3513 30.8489 21.4125 30.8656C21.6519 30.8879 21.9024 30.8879 22.1089 30.7654C22.1812 30.732 22.2647 30.682 22.3371 30.6374C22.3594 30.6541 22.3928 30.6597 22.4373 30.6597C22.6488 30.6653 22.8381 30.5372 23 30.4036C23.1726 30.2756 23.3173 30.1086 23.4008 29.9027C23.4175 29.8804 23.4342 29.8526 23.4565 29.8303C23.5233 29.7301 23.5845 29.6355 23.6346 29.5297C23.6903 29.4963 23.7404 29.4407 23.7737 29.3683C23.7904 29.3683 23.796 29.3628 23.8127 29.3516C23.9574 29.2347 23.9908 29.0343 24.0075 28.8507C24.0181 28.6169 24.0237 28.3497 23.9346 28.0936ZM22.9043 29.2459C22.8876 29.2793 22.8653 29.3015 22.8486 29.3349C22.6928 29.4073 22.5369 29.5075 22.4256 29.6355C22.4033 29.6522 22.3755 29.6745 22.3532 29.6912C22.2475 29.6689 22.1417 29.6856 22.036 29.7246C21.9692 29.7301 21.8968 29.7413 21.8244 29.7635C21.8077 29.7635 21.7855 29.7691 21.7688 29.7691C21.663 29.7691 21.5461 29.7691 21.4404 29.7858C21.3847 29.6689 21.3012 29.5743 21.201 29.5019C21.0229 29.3461 20.8114 29.2013 20.577 29.1345V29.129C20.577 28.9342 20.5436 28.7393 20.488 28.5501C20.4713 28.4443 20.449 28.3441 20.4323 28.2384C20.4657 28.1716 20.488 28.1159 20.5158 28.0491C20.5381 27.999 20.5659 27.9434 20.5826 27.8877C20.5826 27.8821 20.5826 27.8821 20.5882 27.871C20.6772 27.8209 20.7663 27.7652 20.8554 27.7151C21.0112 27.6094 21.1838 27.5203 21.3229 27.3867C21.3452 27.3812 21.3786 27.37 21.4064 27.3645C21.4955 27.3979 21.6124 27.3812 21.7571 27.3422C21.8128 27.3199 21.8796 27.2921 21.9463 27.2698C21.9686 27.2698 21.9853 27.2698 22.0131 27.2754C22.0855 27.3478 22.1746 27.3923 22.2748 27.4201C22.2915 27.4591 22.3082 27.5036 22.3304 27.537C22.4195 27.6261 22.5419 27.6817 22.6477 27.7597C22.7535 27.832 22.8536 27.9155 22.9483 27.9879C22.965 27.9935 22.9817 28.0102 22.9984 28.0213C23.0039 28.1103 23.0206 28.1994 23.0318 28.2606C23.0652 28.3831 23.1208 28.5222 23.1876 28.628C23.0212 28.795 22.9321 29.0176 22.9043 29.2459Z" fill="#F2A963"/>
<path d="M9.96116 13.3486C9.9222 13.1761 9.77191 12.8811 9.64389 13.1872C9.63832 13.2206 9.62719 13.254 9.62162 13.2874C9.62162 13.2818 9.62162 13.2818 9.62162 13.2707C9.62719 13.1983 9.61606 13.126 9.58266 13.0592C9.54369 12.792 9.45463 12.536 9.35444 12.2855C9.33774 12.2187 9.32104 12.1575 9.30435 12.0962C9.28765 12.0072 9.25425 11.9181 9.19859 11.8402C9.19859 11.8235 9.19302 11.8068 9.18189 11.7734C9.17632 11.7344 9.14849 11.6843 9.12622 11.6509C9.09283 11.5062 9.02603 11.3726 8.89801 11.406C8.89244 11.4004 8.89244 11.3893 8.88131 11.3837C8.80895 11.3114 8.75329 11.2947 8.70319 11.3003C8.66423 11.2502 8.61413 11.2001 8.56403 11.1555C8.36921 10.9329 8.11317 10.7548 7.87883 10.6657C7.75637 10.5989 7.62278 10.5488 7.48919 10.5432C7.26654 10.4542 7.02162 10.4208 6.78729 10.4208C6.59803 10.4041 6.39765 10.4542 6.2301 10.5655C6.14104 10.5711 6.05755 10.5878 5.97405 10.6212C5.89056 10.6212 5.81263 10.6212 5.72914 10.6212C5.62338 10.6434 5.55659 10.7214 5.51762 10.816C5.48422 10.8216 5.45083 10.8383 5.41743 10.855C5.37846 10.7492 5.31167 10.6657 5.19478 10.7102C5.03892 10.8271 4.8942 10.9496 4.75504 11.0776C4.72165 11.0275 4.68268 10.9885 4.62702 10.9774C4.57136 10.9774 4.53796 11.0164 4.499 11.0609C4.4823 11.0776 4.47673 11.0943 4.46003 11.111C4.43777 11.1166 4.42107 11.1277 4.40437 11.1444C4.37097 11.1667 4.35427 11.2001 4.33201 11.2335C4.32644 11.2557 4.30974 11.2724 4.29861 11.3003C4.28191 11.2613 4.25965 11.2168 4.23182 11.1778C4.09266 11.0331 4.0036 11.2001 3.93124 11.317C3.81435 11.4784 3.69189 11.6454 3.58056 11.8179C3.35791 12.1797 3.15753 12.5527 3.07348 12.9646C3.06791 12.9868 3.06791 13.0147 3.06791 13.0369C3.06235 13.0536 3.06235 13.0592 3.06235 13.0759C3.04008 13.0982 3.02338 13.126 2.99555 13.165C2.98998 13.1816 2.97885 13.2039 2.97329 13.2206C2.97329 13.2206 2.97329 13.2262 2.96772 13.2262C2.96215 13.2429 2.94546 13.2596 2.93432 13.2763C2.92876 13.293 2.91762 13.3097 2.91206 13.3264C2.91206 13.3319 2.91206 13.3319 2.90649 13.3431C2.90649 13.3486 2.90093 13.3653 2.90093 13.3765C2.87866 13.4655 2.86753 13.5657 2.86753 13.6548V13.6603C2.68941 13.6103 2.60035 13.9053 2.60035 14.1001C2.59478 14.306 2.68384 14.4897 2.72281 14.679C2.7896 14.9907 2.89536 15.3024 3.04008 15.5863C3.11244 15.7254 3.17924 15.8868 3.30726 15.987C3.3017 16.0594 3.3017 16.1429 3.30726 16.1986C3.32396 16.2876 3.34066 16.3711 3.39632 16.4435C3.43529 16.4824 3.47981 16.5103 3.52434 16.5437C3.64124 16.6439 3.75256 16.7496 3.86945 16.8442C3.99191 16.9667 4.1255 17.0892 4.27579 17.2061C4.33145 17.2561 4.38155 17.3118 4.45391 17.3285C4.45948 17.3285 4.47061 17.3285 4.47617 17.3285C4.52627 17.3508 4.56523 17.3786 4.61533 17.3953C4.6376 17.5122 4.69882 17.6068 4.80458 17.6235C4.86025 17.6291 4.92704 17.6291 4.9994 17.6402C5.23875 17.6625 5.47254 17.7237 5.71244 17.7682C5.72914 17.8684 5.76254 17.9575 5.81263 18.0243C5.8349 18.0577 5.87943 18.0744 5.91839 18.08H5.92396C5.94066 18.08 5.95736 18.08 5.97405 18.08C6.10208 18.08 6.2301 18.0577 6.35256 18.0243C6.36926 18.0243 6.39152 18.0187 6.40822 18.0076C6.63644 17.9742 6.86466 17.9408 7.09343 17.8907C7.21032 17.8907 7.29938 17.8684 7.37174 17.835C7.43854 17.8183 7.4942 17.8016 7.56099 17.7849C7.71685 17.7348 7.8727 17.6569 7.99516 17.54C8.06196 17.6291 8.17328 17.6402 8.26234 17.5233C8.3514 17.3953 8.44046 17.2561 8.52952 17.117C8.62971 17.1003 8.72434 16.9723 8.78557 16.8943C8.88576 16.7719 8.97482 16.6494 9.06388 16.527C9.20304 16.3377 9.36446 16.1485 9.45352 15.9369C9.47022 15.9202 9.47579 15.898 9.49248 15.8813C9.57598 15.7366 9.62051 15.4082 9.53145 15.2189C9.53701 15.2022 9.54815 15.1799 9.54815 15.1632C9.54815 15.1465 9.55371 15.1298 9.55371 15.1243C9.63721 15.102 9.67617 15.0018 9.69844 14.9016C9.69844 14.9016 9.69844 14.9016 9.704 14.9016C9.70957 14.8961 9.7207 14.8849 9.72627 14.8794C9.72627 14.8738 9.73183 14.8738 9.73183 14.8627C9.7374 14.846 9.7374 14.8293 9.7374 14.807C9.82089 14.8014 9.89325 14.7012 9.90995 14.5509V14.5454C9.98231 14.3728 9.97675 14.178 9.99345 13.9999C10.0001 13.7828 10.0168 13.5657 9.96116 13.3486ZM8.90858 14.8794C8.84179 14.9183 8.80283 14.9962 8.74716 15.0519C8.55234 15.308 8.36309 15.5529 8.16772 15.8034C8.08422 15.9202 7.99516 16.0316 7.91167 16.1485C7.9061 16.1485 7.89497 16.154 7.89497 16.154C7.8894 16.1596 7.8894 16.1596 7.87827 16.1707C7.8727 16.1707 7.86157 16.1763 7.84487 16.193C7.56099 16.3878 7.28769 16.6272 7.02608 16.8609C6.99268 16.8943 6.95372 16.9166 6.92588 16.9444C6.92588 16.9444 6.92032 16.9444 6.92032 16.95C6.90362 16.9556 6.89805 16.9667 6.88692 16.9723C6.82012 16.9723 6.7589 16.9723 6.6921 16.9723C6.61974 16.9556 6.53625 16.95 6.46389 16.9723C6.45832 16.9723 6.44719 16.9723 6.44719 16.9778C6.43049 16.9778 6.42492 16.9778 6.40822 16.9778L6.40266 16.9723C6.35256 16.8721 6.24123 16.8498 6.13548 16.8331C5.94622 16.7997 5.92396 16.7774 5.66234 16.7107C5.46752 16.655 5.31724 16.6216 5.19478 16.5938C5.16138 16.5882 5.13912 16.5715 5.10572 16.5604C5.11128 16.4045 5.08345 16.2598 4.98883 16.1262C4.92203 16.0371 4.64372 15.8702 4.39825 15.7254C4.24239 15.5362 4.08097 15.3636 3.90842 15.1966C3.90285 15.1799 3.88615 15.1632 3.87502 15.1465C3.87502 15.1465 3.87502 15.141 3.88059 15.141C4.01974 14.8404 3.88615 14.5287 3.79153 14.2337C3.76926 13.9387 3.74143 13.6548 3.67463 13.3653C3.747 13.2763 3.81936 13.1872 3.88615 13.0982C3.90285 13.0815 3.90842 13.0648 3.92512 13.0425C3.94738 13.0202 3.96408 12.9924 3.99191 12.959C4.09767 12.9033 4.20343 12.8198 4.29249 12.753C4.52071 12.5805 4.72666 12.3745 4.90533 12.1575C5.00553 12.0406 5.09459 11.9181 5.18365 11.7957C5.30054 11.74 5.423 11.6788 5.54545 11.6342C5.59555 11.6676 5.66234 11.6732 5.71801 11.6843C5.87943 11.7901 6.09651 11.829 6.27519 11.8736C6.64256 11.9292 7.01049 11.907 7.37786 11.907C7.53372 12.1129 7.8343 12.4191 8.02967 12.3634C8.09647 12.4636 8.16883 12.5527 8.24119 12.6417C8.41374 12.8365 8.59186 13.0202 8.74271 13.0592C8.79837 13.215 8.8596 13.3709 8.92083 13.5268C8.86517 13.8774 8.90413 14.2448 8.92083 14.6066C8.92083 14.6233 8.9264 14.6567 8.9264 14.6901C8.91415 14.7513 8.91415 14.8126 8.90858 14.8794Z" fill="#F2A963"/>
<path d="M18.2709 5.6839C18.2653 5.66163 18.2653 5.64493 18.2542 5.6171C18.2375 5.48908 18.2208 5.35549 18.1874 5.22746C18.1874 5.2052 18.1874 5.17737 18.1874 5.14397C18.1874 5.1384 18.1874 5.1217 18.1874 5.11057C18.1874 5.06047 18.1818 5.00481 18.1707 4.95472C18.1651 4.90462 18.1484 4.84896 18.1206 4.80999C18.115 4.59848 17.9759 4.44262 17.8534 4.27007C17.7477 4.11421 17.6419 3.95279 17.525 3.8025C17.4527 3.71901 17.3692 3.62438 17.2578 3.60768C17.2578 3.60768 17.2578 3.60768 17.2523 3.60768C17.2189 3.57428 17.1855 3.54089 17.1521 3.50749C17.0296 3.37947 16.8849 3.22918 16.7736 3.11785C16.7513 3.09559 16.6734 3.02879 16.6344 3.00096C16.6289 2.99539 16.6289 2.99539 16.6177 2.98426C16.5843 2.95086 16.5342 2.9119 16.4897 2.9286C16.4062 2.8618 16.3338 2.80058 16.2504 2.73378C16.1502 2.64472 16.0722 2.68368 16.0221 2.77274C16.0054 2.72265 15.9887 2.68368 15.9665 2.64472C15.9442 2.59462 15.8941 2.56123 15.844 2.54453C15.6715 2.47773 15.4822 2.48886 15.298 2.48886C15.2646 2.4833 15.2423 2.4666 15.2089 2.45547C15.1588 2.43877 15.1031 2.40537 15.0531 2.38867C15.0475 2.38311 15.0364 2.37197 15.0308 2.36641L15.0531 2.38867C14.9696 2.32188 14.8972 2.22725 14.7914 2.21055C14.669 2.24395 14.6133 2.35527 14.5855 2.48886C14.5688 2.48886 14.5521 2.48886 14.5298 2.48886C14.4964 2.42207 14.4463 2.37197 14.3851 2.36084C14.3127 2.36641 14.2292 2.39424 14.1569 2.41094C14.0734 2.42764 14.001 2.4499 13.9175 2.4666C13.7951 2.44434 13.6726 2.41094 13.5502 2.4499C13.5112 2.4833 13.4778 2.52226 13.45 2.57236C13.4333 2.57236 13.4166 2.57236 13.3999 2.57793C13.2997 2.58349 13.2051 2.57793 13.116 2.61132C13.077 2.63359 13.0436 2.67812 13.0269 2.71708C12.91 2.78388 12.8043 2.85624 12.7097 2.9453C12.7097 2.9453 12.7041 2.9453 12.7041 2.95086C12.7041 2.95086 12.6985 2.95086 12.6985 2.95643C12.6596 2.97313 12.6262 2.98983 12.5816 2.99539C12.3423 3.07889 12.1085 3.13455 11.8797 3.22361C11.7795 3.25701 11.6849 3.3071 11.6404 3.40173C11.6014 3.48522 11.5847 3.57985 11.5847 3.66891C11.5346 3.73571 11.5124 3.81363 11.4957 3.90826C11.4456 3.90269 11.3899 3.92496 11.3398 4.00845C11.1172 4.28677 11.0281 4.63744 10.939 4.97141C10.8722 5.11057 10.7999 5.25529 10.7331 5.40558C10.683 5.51134 10.6496 5.6171 10.6273 5.73399C10.5884 5.89541 10.5884 6.0791 10.6607 6.23495C10.6774 6.26835 10.6997 6.30175 10.7331 6.32401C10.7331 6.34071 10.7331 6.34628 10.7331 6.36298C10.7275 6.40194 10.7275 6.44647 10.7275 6.48544C10.7275 6.5745 10.7331 6.69695 10.7776 6.78601C10.7776 7.04206 10.7943 7.28698 10.8277 7.53746C10.8277 7.69888 10.85 7.85473 10.9279 7.94379C10.9279 7.97719 10.9279 8.01059 10.9279 8.04955C10.9279 8.05512 10.9279 8.07182 10.9279 8.08295C10.9279 8.14975 10.9335 8.24437 10.9669 8.32787C10.9669 8.32787 10.9669 8.33343 10.9724 8.33343C10.978 8.339 10.978 8.3557 10.9891 8.36683C11.0114 8.42249 11.0559 8.46702 11.1116 8.47259C11.1172 8.47259 11.1172 8.47259 11.1283 8.47259C11.1338 8.47259 11.1338 8.47259 11.145 8.47259C11.1617 8.47259 11.1672 8.47259 11.1839 8.46702L11.1895 8.46146C11.2118 8.46702 11.2285 8.46702 11.2563 8.46702C11.273 8.50042 11.2953 8.53382 11.312 8.56722C11.3342 8.66741 11.3788 8.76203 11.4289 8.82883C11.5291 8.92902 11.6237 9.03478 11.7294 9.12384L11.735 9.12941C11.7406 9.14611 11.7517 9.1628 11.7573 9.1795C11.7907 9.25186 11.8575 9.32423 11.9187 9.34092C11.9855 9.46895 12.0801 9.58584 12.1859 9.68603C12.3473 9.84189 12.9323 10.4319 13.1494 10.2427C13.1661 10.226 13.1828 10.2037 13.1995 10.1759C13.2218 10.2482 13.2663 10.315 13.3219 10.3651C13.4221 10.3985 13.5279 10.4208 13.6225 10.4375C14.0567 10.5043 14.5081 10.5265 14.9478 10.4931C15.0647 10.4709 15.1371 10.3929 15.1928 10.3039C15.1983 10.3039 15.1983 10.3039 15.2095 10.3039C15.2596 10.3039 15.3152 10.3039 15.3653 10.3039H15.3709C15.3764 10.3039 15.3931 10.3039 15.4043 10.3039C15.421 10.3039 15.4432 10.2983 15.4599 10.2872C15.4766 10.2872 15.4822 10.2872 15.4989 10.2872C15.588 10.2872 15.677 10.2872 15.7661 10.2872C15.7884 10.3429 15.8329 10.3929 15.883 10.4319C15.9386 10.4709 16.011 10.4375 16.0722 10.4263C16.2671 10.3707 16.434 10.2315 16.596 10.1091C16.8242 9.93095 17.1699 9.59697 17.4315 9.32423C17.4705 9.29083 17.515 9.25186 17.554 9.20733C17.6709 9.07931 17.8378 8.97912 17.9046 8.8177C17.938 8.72864 17.9547 8.62288 17.9436 8.51712C17.9659 8.48372 17.9937 8.44476 18.0104 8.39466C18.0605 8.3557 18.0995 8.3056 18.1162 8.24994C18.1551 8.17758 18.1718 8.01059 18.1496 7.86587C18.1663 7.8603 18.1718 7.8436 18.1885 7.8269C18.2776 7.68775 18.3165 7.52633 18.3332 7.35934C18.5826 7.09216 18.321 6.0624 18.2709 5.6839ZM17.2796 6.9363C16.9845 7.32037 16.7953 7.77124 16.5609 8.18871C16.4886 8.33343 16.4162 8.47259 16.3494 8.62288C16.0322 8.85109 15.6865 9.12384 15.4082 9.30196C15.4026 9.30196 15.3859 9.30753 15.3748 9.30753C15.3581 9.30753 15.3358 9.30753 15.3191 9.31309C15.1577 9.33536 14.9851 9.36876 14.8176 9.41329C14.812 9.41329 14.8009 9.40772 14.7953 9.40772C14.4614 9.2797 14.1157 9.15167 13.7595 9.11271C13.6537 9.09601 13.5479 9.09044 13.4477 9.07931C13.4422 9.07374 13.4255 9.07374 13.4088 9.06261C13.4032 9.06261 13.3921 9.06818 13.3865 9.06818C13.303 9.06261 13.2251 9.05148 13.1305 9.04591C12.969 8.95685 12.7965 8.86779 12.6234 8.78987C12.6067 8.77317 12.6011 8.7509 12.5844 8.7342C12.3618 8.40579 12.1168 8.08852 11.8547 7.78794C11.7712 7.68775 11.6988 7.59869 11.6265 7.54302C11.6265 7.52076 11.632 7.48736 11.632 7.45953C11.6376 7.44283 11.632 7.44283 11.632 7.44283C11.632 7.42057 11.6376 7.39274 11.632 7.38717C11.632 7.26471 11.632 7.14782 11.632 7.02536C11.6265 6.88064 11.6153 6.65799 11.6153 6.44647C11.632 6.51883 11.6543 6.59119 11.671 6.67469C11.6543 6.67469 11.6487 6.68025 11.6376 6.71365C11.632 6.74705 11.6543 6.71365 11.671 6.69695C11.7044 6.81385 11.7267 6.9363 11.7545 7.04763C11.7601 7.08103 11.7601 7.10329 11.7712 7.13669C11.7712 7.17565 11.7768 7.22018 11.7879 7.25358C11.8046 7.30924 11.8435 7.28698 11.8435 7.23688C11.838 6.87507 11.7545 6.5244 11.7044 6.16816C11.6821 6.00674 11.6654 5.83418 11.6209 5.6672C11.6265 5.68946 11.6209 5.64493 11.5986 5.5837C11.6543 5.44455 11.7267 5.28312 11.8046 5.11614C11.9103 4.98811 12.0272 4.84896 12.1553 4.69867C12.2443 4.60961 12.3334 4.52055 12.4224 4.42036C12.7008 4.15874 12.8399 4.01959 13.1021 3.82477C13.1522 3.7858 13.3971 3.57985 13.2746 3.68004C13.3247 3.62995 13.3915 3.60768 13.4194 3.55202C13.4249 3.53532 13.4361 3.51862 13.4416 3.50192C13.4806 3.50192 13.5307 3.50749 13.5808 3.51862C14.0823 3.56872 14.5777 3.52419 15.0675 3.51862C15.1232 3.50192 15.1733 3.46296 15.2067 3.41286C15.3236 3.50192 15.446 3.58542 15.5685 3.65778C15.5629 3.71344 15.5685 3.78024 15.5685 3.8359C15.5741 3.92496 15.6074 4.01402 15.6687 4.09195C15.6909 4.12534 15.7243 4.14204 15.7577 4.14761C15.9526 4.29233 16.3873 4.63187 16.7491 4.80999C16.7658 4.82669 16.7825 4.84339 16.8048 4.84896C16.8381 4.88235 16.8771 4.90462 16.9105 4.93802C16.9105 5.04378 16.9328 5.14397 16.9606 5.23859C16.9829 5.36105 17.0163 5.47794 17.0441 5.58927C17.0664 5.67833 17.0942 5.76182 17.1165 5.85088C17.1721 6.0791 17.2334 6.30732 17.289 6.53553C17.3224 6.64129 17.3558 6.75818 17.3948 6.86394C17.363 6.86951 17.3185 6.88621 17.2796 6.9363Z" fill="#F2A963"/>
<path d="M15.0316 0.0295296C13.2572 0.242161 11.671 0.666866 10.2481 1.3042C8.91533 1.90091 8.30215 2.25214 7.09967 3.1183C4.72822 4.84273 2.93767 6.99191 1.65393 9.66433C0.410869 12.2471 -0.0797967 14.6495 0.0104323 17.6325C0.0594153 19.1933 0.165842 20.0355 0.509447 21.4327C1.43339 25.2005 3.78869 28.7146 6.93647 31.0028C8.98095 32.4985 11.867 33.6914 14.214 34.0104C17.8936 34.5252 21.3038 33.9859 24.4516 32.3922C25.899 31.6647 26.4142 31.3135 26.3813 31.1009C26.324 30.7084 26.1279 30.7413 25.2859 31.2562C24.1492 31.9508 23.6178 32.2041 22.4159 32.6127C20.069 33.422 17.8858 33.7404 15.8413 33.5773C12.1778 33.2828 9.07898 32.0327 6.33943 29.7527C5.538 29.0825 4.3033 27.7093 3.67392 26.7858C1.9402 24.2603 1.15547 22.2337 0.804013 19.4221C0.321697 15.5073 0.967773 12.001 2.74213 8.91227C3.66607 7.29416 5.12972 5.52905 6.45465 4.42526C8.2864 2.89676 10.7475 1.65488 13.1435 1.04203C15.8747 0.347366 19.6195 0.543293 22.1057 1.50793C24.7389 2.53768 27.0117 4.07403 28.5984 5.90477C29.9802 7.50673 30.5443 8.3729 31.4277 10.212C31.9267 11.2746 32.0653 11.7238 32.0247 12.2387C32.0002 12.5821 31.9841 12.6066 31.7468 12.6311C31.5585 12.6472 31.3786 12.566 30.9865 12.2799C30.7003 12.0672 30.2341 11.7895 29.9562 11.6587C28.9587 11.2011 27.8872 11.4137 27.6015 12.1329C27.2746 12.9667 27.3726 13.6286 28.0019 14.9361C28.3617 15.6714 28.4435 15.7777 29.6944 17.0118C30.4223 17.7226 31.3134 18.5403 31.6816 18.8258C32.728 19.643 32.9737 20.125 32.9815 21.3674C32.9815 22.3482 33.1207 22.1272 33.1697 21.0485C33.2271 19.8473 33.1291 19.6836 31.1336 17.7142C28.5906 15.1971 28.1896 14.6088 28.1328 13.2439C28.1 12.5331 28.1083 12.4841 28.3044 12.2877C28.4191 12.173 28.6068 12.0589 28.7132 12.026C29.1632 11.9197 30.0297 12.3205 31.1174 13.1454C31.837 13.6931 32.6223 13.4805 32.7365 12.6957C32.8757 11.7722 31.837 9.2551 30.4875 7.24457C27.9362 3.46057 24.183 1.06591 19.4078 0.183662C18.6945 0.0462303 15.7182 -0.0517387 15.0316 0.0295296Z" fill="#B66429"/>
<path d="M13.5597 2.11359C12.7828 2.2444 12.0226 2.6858 11.3765 3.35598C10.4526 4.3284 10.0683 5.37491 10.1501 6.68242C10.2404 8.00664 10.6653 8.93793 11.5731 9.79624C12.399 10.5805 13.3068 10.9323 14.5249 10.9323C15.7679 10.9323 16.8473 10.4503 17.6978 9.51014C18.4992 8.63568 18.7933 7.81855 18.8016 6.51098C18.8016 5.64488 18.6378 4.99919 18.2458 4.31226C17.6081 3.21738 16.864 2.57948 15.8743 2.26883C15.2439 2.07295 14.189 1.99948 13.5597 2.11359ZM15.6287 2.80047C16.4792 3.08657 17.436 3.88755 17.8036 4.6312C18.4741 5.97156 18.4168 7.24629 17.632 8.60334C17.1658 9.38763 16.6507 9.80454 15.6861 10.148C14.0342 10.7447 12.1456 10.0578 11.2785 8.55436C10.9104 7.90867 10.755 7.32032 10.7634 6.51928C10.7634 5.68545 10.9516 5.12159 11.4913 4.29606C12.0471 3.44609 12.5951 3.08651 13.846 2.75142C14.4591 2.58783 15.0478 2.60398 15.6287 2.80047Z" fill="#B66429"/>
<path d="M13.7149 3.35599C12.8238 3.60926 11.7935 4.59003 11.5478 5.42386C11.4008 5.92259 11.3763 7.17283 11.5072 7.63038C11.6297 8.08792 12.2919 8.93789 12.7665 9.27298C14.0992 10.1803 15.9148 9.84519 16.8961 8.52098C17.4274 7.80182 17.5583 7.49122 17.6157 6.85388C17.7465 5.44005 16.7652 3.80574 15.5795 3.46231C14.9335 3.28252 14.1482 3.24188 13.7149 3.35599ZM14.2385 5.11331C14.4345 5.4484 14.361 5.80798 14.0424 6.0529C13.8464 6.19205 13.789 6.19985 13.5273 6.11023C13.1837 5.99556 13.0366 5.77514 13.0527 5.37493C13.0689 4.98251 13.3145 4.78658 13.7561 4.81942C14.0257 4.8433 14.1075 4.89228 14.2385 5.11331ZM15.931 5.12945C16.1599 5.25191 16.2579 5.62819 16.1354 5.92209C15.9471 6.36349 15.4648 6.4943 15.1051 6.19985C14.86 6.00392 14.8349 5.47234 15.0644 5.21907C15.2359 5.03144 15.6692 4.9908 15.931 5.12945ZM13.8703 6.92735C14.0502 7.09879 14.083 7.22181 14.0502 7.5402C14.0257 7.75283 13.911 7.89143 13.6498 8.02224C13.0037 8.34898 12.4312 7.48287 12.9464 6.96799C13.1914 6.71528 13.6169 6.69858 13.8703 6.92735ZM15.8491 7.17283C16.0129 7.33648 16.0696 7.75283 15.9638 8.03115C15.8986 8.18645 15.5138 8.39907 15.2771 8.39907C14.7781 8.39907 14.5002 7.53296 14.8845 7.17338C15.1212 6.95185 15.6286 6.95185 15.8491 7.17283Z" fill="#B66429"/>
<path d="M22.9797 5.75062C22.8243 6.69856 22.5297 7.06648 21.7533 7.31975C21.5244 7.40157 21.3362 7.49119 21.3362 7.54017C21.3445 7.58081 21.5244 7.66263 21.7366 7.71161C22.4891 7.88306 22.7263 8.14467 23.012 9.12544L23.1919 9.74664L23.2493 9.4199C23.4131 8.45527 23.7806 7.84242 24.3203 7.64649C24.6066 7.54852 24.6963 7.41772 24.4757 7.41772C24.2958 7.41772 23.7317 7.02529 23.5846 6.81322C23.4292 6.5761 23.2087 5.8163 23.2087 5.5302C23.2086 5.08874 23.0693 5.2274 22.9797 5.75062Z" fill="#B66429"/>
<path d="M6.78894 7.21344C6.56841 7.36874 6.44534 7.79345 6.54392 8.06341C6.79735 8.75808 7.83601 8.53765 7.8605 7.79345C7.87664 7.23793 7.24677 6.89505 6.78894 7.21344Z" fill="#B66429"/>
<path d="M5.21057 10.2293C4.63803 10.3846 4.15571 10.7035 3.56708 11.3325C2.61024 12.3378 2.23435 13.4572 2.42205 14.7653C2.56126 15.7299 2.94555 16.5142 3.59942 17.1599C5.56208 19.0803 8.41579 18.5821 9.69953 16.0973C10.0755 15.3782 10.2063 14.8305 10.2063 14.0462C10.2063 13.3432 10.0348 12.7793 9.60931 12.0601C9.03676 11.1038 8.14566 10.4259 7.15598 10.1965C6.69092 10.0901 5.66895 10.1068 5.21057 10.2293ZM7.14039 10.8093C7.69624 10.9562 8.57949 11.5123 8.9148 11.9454C9.73238 12.9751 9.8471 14.5933 9.20943 15.9091C8.87417 16.6038 8.37516 17.0858 7.62327 17.4454C7.03458 17.7232 6.99339 17.7315 6.25764 17.6987C4.80234 17.6252 3.97642 17.0775 3.3304 15.7783C3.05248 15.2061 2.97895 14.9773 2.94611 14.4953C2.88093 13.4656 3.26522 12.4029 3.96028 11.7166C4.37742 11.2919 4.6225 11.1527 5.34205 10.8828C5.93012 10.6623 6.48653 10.6462 7.14039 10.8093Z" fill="#B66429"/>
<path d="M5.81589 11.3487C4.84291 11.5285 3.89447 12.4519 3.63269 13.4901C3.47728 14.0784 3.56751 14.969 3.82873 15.5334C4.05762 16.0155 4.74433 16.6528 5.36586 16.9556C5.97903 17.2579 6.71534 17.2746 7.25499 16.9885C7.84367 16.6862 8.45685 16.0405 8.77597 15.4032C9.02099 14.9128 9.06224 14.7575 9.06224 14.2426C9.06224 13.2947 8.75148 12.5755 8.06477 11.9459C7.50007 11.4227 6.65801 11.2017 5.81589 11.3487ZM5.85658 12.861C6.11836 13.0408 6.1016 13.4822 5.82374 13.7027C5.53746 13.9231 5.25954 13.9231 5.10419 13.6943C4.82626 13.3019 5.039 12.7297 5.44779 12.7297C5.5703 12.7302 5.75855 12.787 5.85658 12.861ZM7.5736 12.91C7.63099 12.9673 7.67162 13.1471 7.67162 13.3102C7.67162 13.8579 7.03395 14.1274 6.71478 13.7271C6.56778 13.5474 6.58392 13.1388 6.74762 12.959C6.90359 12.787 7.41875 12.7547 7.5736 12.91ZM5.73401 14.6178C5.97903 14.7486 6.03642 14.8466 6.03642 15.1572C6.03642 15.4516 5.72566 15.7539 5.42324 15.7539C5.16146 15.7539 4.89974 15.509 4.84291 15.2062C4.80227 14.9935 4.83456 14.9039 4.99832 14.7403C5.2272 14.5115 5.45614 14.4708 5.73401 14.6178ZM7.56581 14.6506C7.78634 14.8059 7.85208 15.1655 7.70502 15.4433C7.48448 15.868 6.8791 15.8518 6.66636 15.4188C6.38843 14.8304 7.03395 14.2749 7.56581 14.6506Z" fill="#B66429"/>
<path d="M13.4125 13.637C13.2816 14.2009 13.0527 14.487 12.6194 14.6584C12.2596 14.7976 12.1371 14.9362 12.3744 14.9362C12.4479 14.9362 12.6445 15.0096 12.816 15.0998C13.1596 15.2712 13.3557 15.5985 13.4459 16.1457C13.5111 16.5626 13.6096 16.5298 13.6748 16.0477C13.7483 15.5657 14.0184 15.1816 14.4272 14.969L14.7625 14.7976L14.4272 14.6423C14.0346 14.4625 13.7405 14.0623 13.6748 13.6125C13.6002 13.1633 13.5183 13.1716 13.4125 13.637Z" fill="#B66429"/>
<path d="M21.287 13.9231C21.1233 15.0102 20.8125 15.3776 19.7415 15.7539C19.4965 15.844 19.3734 15.9175 19.4469 15.942C19.5121 15.9665 19.7738 16.0483 20.0195 16.1218C20.2645 16.1953 20.5753 16.3344 20.6984 16.424C20.993 16.6367 21.3199 17.323 21.336 17.7561C21.3444 17.9358 21.3689 18.173 21.4012 18.2871C21.4586 18.4752 21.4664 18.4752 21.5076 18.3277C21.5404 18.2375 21.5811 17.9765 21.614 17.7555C21.7287 16.8972 22.309 16.1045 22.9389 15.9492C23.1678 15.8919 23.1923 15.7533 22.9717 15.7533C22.2683 15.7533 21.492 14.7236 21.492 13.7756C21.4914 13.4082 21.3522 13.5146 21.287 13.9231Z" fill="#B66429"/>
<path d="M7.3039 19.7015C6.69073 19.9058 6.27359 20.1758 5.78293 20.674C4.98984 21.4749 4.64624 22.3577 4.64624 23.5918C4.64624 24.7112 5.07952 25.6843 5.92999 26.4769C7.67991 28.095 10.5091 27.5473 11.6213 25.382C12.0462 24.5482 12.1448 23.952 12.014 23.0853C11.7851 21.6631 10.992 20.5515 9.75723 19.9225C9.25042 19.6692 9.11956 19.6364 8.41615 19.6203C7.92543 19.603 7.5083 19.6358 7.3039 19.7015ZM9.67535 20.4858C10.7218 20.9517 11.5316 22.2921 11.5233 23.559C11.5149 24.458 11.2615 25.0791 10.64 25.7082C10.3292 26.0271 9.95327 26.3049 9.65865 26.4435C9.23373 26.6394 9.09446 26.6639 8.32592 26.6639C7.56569 26.6556 7.41033 26.6311 6.9932 26.4351C5.83196 25.8874 5.21044 24.8499 5.20264 23.4521C5.19429 22.7413 5.42318 22.0789 5.87321 21.4499C6.24136 20.935 6.59276 20.6901 7.38584 20.3956C7.95833 20.1836 9.10281 20.2242 9.67535 20.4858Z" fill="#B66429"/>
<path d="M7.84377 20.8209C7.13257 20.9678 6.47814 21.5072 5.98748 22.341C5.77473 22.7006 5.75024 22.8153 5.75024 23.4359C5.75859 24.3104 6.02817 24.9644 6.60906 25.5116C7.23059 26.0916 7.44333 26.1734 8.28545 26.1656C8.90698 26.1656 9.08688 26.1328 9.43049 25.953C9.97013 25.6753 10.4035 25.2255 10.6568 24.6861C11.0818 23.7872 11.0901 22.9779 10.6652 22.1445C10.1823 21.1888 8.93147 20.6004 7.84377 20.8209ZM9.1687 21.8919C9.47112 22.031 9.57749 22.3249 9.43883 22.6517C9.16091 23.3302 8.40852 23.191 8.40852 22.4719C8.40852 22.1613 8.53938 21.957 8.81731 21.859C8.88249 21.8345 8.94817 21.81 8.95652 21.81C8.96375 21.8017 9.06233 21.8423 9.1687 21.8919ZM7.7045 22.3817C7.99912 22.6188 7.99912 23.0357 7.69615 23.2723C7.13196 23.7137 6.44525 22.9211 6.93591 22.3895C7.14871 22.1613 7.42658 22.1613 7.7045 22.3817ZM9.66716 23.771C10.0598 24.0816 9.8799 24.7435 9.38924 24.7435C8.9888 24.7435 8.70253 24.3677 8.82504 24.016C8.9888 23.5835 9.31571 23.4933 9.66716 23.771ZM7.87661 24.1306C8.12164 24.3677 8.13839 24.6539 7.934 24.9149C7.60709 25.3151 6.93652 25.0374 6.93652 24.5063C6.93652 24.2531 7.00171 24.1468 7.2228 24.0243C7.47562 23.8774 7.66387 23.9102 7.87661 24.1306Z" fill="#B66429"/>
<path d="M3.02731 19.8078C2.8881 19.9058 2.84741 20.0121 2.84741 20.2899C2.84741 20.7068 3.04346 20.9027 3.46894 20.9027C3.79585 20.9027 3.99245 20.6823 3.99245 20.306C3.9925 19.7666 3.469 19.4972 3.02731 19.8078Z" fill="#B66429"/>
<path d="M15.7428 19.9219C15.7266 19.987 15.6609 20.1997 15.6119 20.3878C15.4894 20.8292 15.1786 21.2049 14.8679 21.2706C14.5081 21.3524 14.4997 21.4588 14.8517 21.5484C15.2933 21.6708 15.5874 22.0143 15.6531 22.4802C15.686 22.6928 15.735 22.8887 15.7679 22.9049C15.8007 22.921 15.8742 22.7334 15.9316 22.4718C16.038 21.9898 16.4306 21.4749 16.7002 21.4749C16.913 21.4749 16.8472 21.3686 16.5203 21.1643C16.136 20.9272 16.0135 20.7396 15.8826 20.208C15.833 19.9792 15.7672 19.8568 15.7428 19.9219Z" fill="#B66429"/>
<path d="M31.5331 20.3305C31.3204 20.4613 30.7974 21.3602 29.1946 24.3349C28.3848 25.8389 27.502 27.4487 27.2241 27.9146C26.954 28.3722 26.7251 28.7729 26.7251 28.7891C26.7251 28.8136 26.6271 28.985 26.5124 29.1648C26.03 29.9413 26.6594 29.4509 27.5343 28.3805C28.6872 26.975 31.0832 23.3708 31.8517 21.908C32.2933 21.0497 32.3997 20.5593 32.1869 20.3472C32.0728 20.2325 31.7292 20.2242 31.5331 20.3305ZM31.7865 20.9762C31.9503 21.0825 31.8517 21.3931 31.4919 21.9241C31.165 22.4061 31.1566 22.4061 30.9767 22.292C30.8704 22.2269 30.8787 22.1612 31.0174 21.7527C31.263 21.0335 31.5003 20.7964 31.7865 20.9762Z" fill="#B66429"/>
<path d="M14.4345 25.7249C12.9052 25.9865 11.8097 27.4983 11.9489 29.1738C12.0553 30.4484 12.9141 31.4949 14.1978 31.928C14.8277 32.1406 15.3178 32.1484 15.907 31.9364C16.5286 31.7237 16.9535 31.4131 17.3216 30.9149C18.3275 29.5584 18.2294 27.8746 17.0844 26.6161C16.4462 25.9046 15.4158 25.5612 14.4345 25.7249ZM15.7756 26.3783C16.5526 26.6889 16.8956 26.9912 17.2064 27.6285C17.4436 28.135 17.4843 28.2987 17.4843 28.8297C17.4843 29.3691 17.4515 29.5244 17.2064 30.0148C16.8628 30.7256 16.6015 31.0039 16.0206 31.265C15.1295 31.6735 14.0825 31.5594 13.4042 30.9788C13.2081 30.8152 12.9625 30.4723 12.8071 30.1534C12.5621 29.6546 12.537 29.5489 12.537 28.8292C12.5454 28.1428 12.5698 27.9953 12.7742 27.579C13.3223 26.4763 14.6634 25.9453 15.7756 26.3783Z" fill="#B66429"/>
<path d="M14.2301 26.8036C13.8865 26.9182 13.3713 27.4164 13.1346 27.8662C12.8729 28.3566 12.8729 29.4514 13.1263 29.934C13.3964 30.4489 13.9929 30.8903 14.6311 31.0289C15.4409 31.2087 16.4139 30.6938 16.7982 29.8684C17.0187 29.3941 17.06 28.5035 16.8884 28.046C16.7492 27.678 16.2914 27.1632 15.9071 26.9511C15.53 26.7295 14.6551 26.6561 14.2301 26.8036ZM15.9961 27.874C16.0451 27.9146 16.0942 28.0782 16.0942 28.2252C16.0942 28.4295 16.0368 28.5358 15.8814 28.6421C15.6854 28.7646 15.6442 28.7646 15.4481 28.6582C15.2766 28.5603 15.2354 28.4785 15.2354 28.2168C15.2354 27.9552 15.276 27.8734 15.4315 27.7999C15.6286 27.7025 15.8001 27.727 15.9961 27.874ZM14.6718 27.9719C14.958 28.4133 14.5248 28.9199 14.0992 28.6421C13.8291 28.4623 13.764 28.2174 13.9193 27.9719C14.0992 27.6942 14.4919 27.6942 14.6718 27.9719ZM15.8491 29.1164C16.2992 29.3451 16.1026 30.0559 15.6041 30.0559C15.3423 30.0559 15.2115 29.9251 15.1463 29.59C15.1057 29.3858 15.1379 29.3123 15.3178 29.1653C15.5874 28.9611 15.5545 28.9611 15.8491 29.1164ZM14.7369 29.3123C14.982 29.5822 14.8188 30.0231 14.4423 30.1623C14.2379 30.2357 13.8865 29.9251 13.8865 29.6719C13.8865 29.2143 14.4429 28.9855 14.7369 29.3123Z" fill="#B66429"/>
<path d="M21.0088 26.1824C20.4529 26.3867 20.0519 26.6645 19.6922 27.122C19.2917 27.6285 19.177 28.0371 19.2177 28.7891C19.2828 30.0148 20.0597 30.8325 21.3518 31.0613C21.8018 31.1348 21.9322 31.1264 22.4473 30.9711C23.2487 30.7262 23.6737 30.3828 24.0173 29.7043C24.2546 29.2384 24.2953 29.0747 24.3036 28.5682C24.3036 27.8897 24.1398 27.4566 23.6576 26.8844C23.0694 26.2069 21.843 25.8796 21.0088 26.1824ZM22.2273 26.7135C22.7586 26.8359 23.3067 27.22 23.5439 27.6208C23.7077 27.9069 23.74 28.0866 23.74 28.5854C23.74 29.2801 23.6175 29.5823 23.1429 30.0727C22.3582 30.8898 20.6818 30.759 20.0931 29.8278C19.7333 29.2556 19.6431 28.7162 19.8152 28.1278C19.8887 27.8662 20.0279 27.5478 20.1176 27.4248C20.322 27.1304 20.9435 26.7708 21.3607 26.6973C21.843 26.6238 21.8269 26.6238 22.2273 26.7135Z" fill="#B66429"/>
<path d="M21.2132 27.2367C20.7554 27.3591 20.5833 27.5389 20.3466 28.1685C20.1339 28.7162 20.1828 29.1002 20.5181 29.5578C20.8618 30.0398 21.1152 30.179 21.6465 30.1706C23.0205 30.1545 23.7968 28.7568 23.0038 27.7186C22.5543 27.1303 22.0803 26.9995 21.2132 27.2367ZM22.7832 28.1189C22.8483 28.1679 22.8812 28.3315 22.865 28.5275C22.8406 28.8136 22.8077 28.8709 22.5788 28.9605C22.3499 29.0585 22.3009 29.0507 22.1126 28.9032C21.8425 28.6906 21.8425 28.3967 22.1043 28.1267C22.3176 27.9146 22.5298 27.9146 22.7832 28.1189ZM21.5078 28.1518C21.7367 28.4134 21.7529 28.626 21.5652 28.8548C21.377 29.0997 21.1236 29.1325 20.854 28.9449C20.6413 28.798 20.609 28.3405 20.805 28.144C20.9765 27.972 21.3524 27.9803 21.5078 28.1518Z" fill="#B66429"/>
<path d="M9.2829 28.8136C8.89026 29.2466 9.38093 29.958 9.91278 29.7125C10.0275 29.6635 10.1578 29.5166 10.2152 29.3858C10.2971 29.1815 10.2887 29.1158 10.15 28.9282C9.93733 28.6505 9.4873 28.5848 9.2829 28.8136Z" fill="#B66429"/>
<path d="M137.645 5.14347C136.277 5.35116 134.225 5.9754 133.278 6.4781C132.717 6.77311 131.682 7.56964 130.998 8.2458C129.998 9.2335 129.56 9.84004 128.911 11.1216C127.788 13.3908 127.508 14.5862 127.508 16.9948C127.508 21.1875 129.051 24.4622 132.155 26.8187C134.646 28.7068 139.485 29.3133 143.08 28.1876C143.852 27.9445 144.852 27.5291 145.29 27.2518L146.096 26.7326L146.219 25.208C146.29 24.3595 146.359 23.4757 146.377 23.2326C146.412 22.8857 146.324 22.7818 145.939 22.7476C145.535 22.6957 145.413 22.7995 145.027 23.5276C144.589 24.4114 143.221 25.7968 142.361 26.2299C140.889 26.9745 138.714 27.096 137.153 26.5249C135.89 26.0576 134.153 24.3937 133.47 23.0072C132.576 21.1876 132.26 19.5945 132.242 16.9086C132.242 14.0671 132.488 12.7855 133.487 10.6885C134.277 9.04233 135.469 7.7431 136.767 7.11886C137.801 6.63386 139.871 6.4604 141.011 6.75541C142.361 7.11886 144.149 9.07655 144.588 10.6708C144.746 11.19 144.834 11.2773 145.272 11.2773H145.798V8.67888C145.798 6.37426 145.763 6.08042 145.482 5.92466C144.676 5.5081 139.012 4.93578 137.645 5.14347Z" fill="#B66429"/>
<path d="M101.432 5.45618C98.8541 6.28811 97.4686 8.31542 97.2404 11.5371L97.1353 13.0959L94.8028 13.1997L94.6797 13.824C94.6272 14.1532 94.6272 14.5001 94.7143 14.5863C94.7847 14.6559 95.3629 14.7421 95.9947 14.7775L97.1341 14.8294L97.1867 20.7545C97.2392 27.2165 97.2571 27.0962 96.2048 27.3215C95.1871 27.5292 94.9077 27.7204 95.0475 28.1358C95.1 28.3435 95.1706 28.5169 95.1873 28.5169C95.1873 28.5169 97.1162 28.4992 99.4656 28.465L103.709 28.4131V27.9281C103.709 27.4608 103.657 27.4254 102.798 27.3558C102.061 27.2861 101.798 27.1646 101.395 26.715L100.904 26.1781V14.7432H104.936V13.1325L103.112 13.2363C101.621 13.3402 101.253 13.3059 101.078 13.0983C100.92 12.9071 100.884 12.1802 100.938 10.4998C101.009 7.86594 101.166 7.48479 102.376 6.87825C102.956 6.60094 103.13 6.58324 103.727 6.7567C104.446 6.96439 105.112 7.7621 105.112 8.36746C105.112 8.90438 106.183 8.69669 106.831 8.03823C106.971 7.91668 107.112 7.48361 107.165 7.12016C107.288 6.30593 106.954 5.83863 106.042 5.45748C105.342 5.16117 102.326 5.16117 101.432 5.45618Z" fill="#B66429"/>
<path d="M52.4169 5.59424C49.6817 5.83733 48.6115 6.27041 46.4723 7.96731C43.7538 10.1327 42.4388 12.8186 42.2106 16.682C41.8594 22.3995 44.6126 26.9049 49.4702 28.5499C50.6097 28.931 51.2236 29.0171 53.1358 29.0868C55.8364 29.1729 57.6256 28.8272 59.4136 27.8572L60.4838 27.2683L60.6773 25.3803C60.8708 23.5087 60.8004 23.0591 60.3261 23.0591C60.221 23.0591 59.8531 23.5441 59.5198 24.133C58.7482 25.4499 57.6613 26.4022 56.3809 26.8872C54.9774 27.4064 52.628 27.3025 51.3657 26.6618C47.1744 24.5306 45.4904 18.5359 47.4026 12.5412C47.6653 11.6573 48.1037 10.6177 48.3497 10.2023C48.929 9.19691 50.103 8.1573 51.2963 7.55194C52.1025 7.13656 52.4536 7.06694 53.7519 7.04924C55.0323 7.04924 55.3823 7.10116 56.2423 7.51653C57.4175 8.08886 58.1187 8.86768 58.7673 10.3581C59.1877 11.3281 59.3108 11.4496 59.7324 11.4496H60.2233V6.425L59.7671 6.25153C59.2056 6.02614 56.4873 5.61077 55.0492 5.50692C54.4688 5.4727 53.2935 5.5081 52.4169 5.59424Z" fill="#B66429"/>
<path d="M120.687 6.53014C119.336 7.24052 119.372 9.45782 120.721 10.1517C122.246 10.9317 123.702 9.99592 123.702 8.2117C123.702 7.39747 123.387 6.91247 122.58 6.53132C121.844 6.18309 121.318 6.18309 120.687 6.53014Z" fill="#B66429"/>
<path d="M110.515 9.28436C109.989 10.6532 109.006 11.9347 107.796 12.7844C106.779 13.4947 106.674 13.6328 106.726 14.119C106.779 14.6052 106.849 14.6559 107.427 14.7078L108.076 14.7598L108.128 20.5126C108.181 26.1604 108.181 26.2819 108.601 27.0962C109.092 28.0839 109.688 28.5346 110.864 28.8119C112.003 29.0715 113.635 28.6904 115.212 27.8242C116.388 27.1658 116.598 26.8023 116.071 26.2819C115.825 26.0388 115.703 26.0565 114.843 26.3858C113.704 26.8188 112.896 26.715 112.283 26.0742L111.862 25.6235L111.757 14.7598L115.897 14.6559L115.949 13.9113L116.002 13.1832H114.005C112.322 13.1832 111.971 13.1313 111.883 12.9059C111.83 12.7501 111.777 11.7105 111.777 10.5671V8.50553H111.287C110.866 8.50553 110.761 8.60937 110.515 9.28436Z" fill="#B66429"/>
<path d="M154.129 12.7324C150.516 13.9278 148.71 16.5263 148.728 20.5468C148.728 23.111 149.464 25.2423 150.832 26.6277C152.183 28.0142 154.393 28.6892 157.023 28.5677C160.758 28.3765 163.038 26.5581 163.95 23.0402C164.318 21.6372 164.231 18.5359 163.793 17.2532C163.091 15.2613 161.601 13.719 159.706 13.0086C158.425 12.5248 155.216 12.369 154.129 12.7324ZM157.566 14.0671C158.548 14.3963 159.232 15.1928 159.776 16.6313C160.232 17.8609 160.267 18.1217 160.267 20.634C160.249 23.0071 160.214 23.4413 159.863 24.3075C158.986 26.454 158.249 27.0959 156.514 27.1821C155.338 27.2517 155.304 27.2517 154.567 26.5932C153.199 25.3636 152.603 23.6136 152.603 20.72C152.585 15.7299 154.567 13.0794 157.566 14.0671Z" fill="#B66429"/>
<path d="M72.0576 13.1478C71.6539 13.339 70.8477 14.014 70.2518 14.6724L69.1649 15.8678V14.5167C69.1649 13.5467 69.0944 13.1478 68.9188 13.0782C68.7958 13.0263 67.9012 13.182 66.9553 13.4074C66.0081 13.6505 64.9211 13.8924 64.5533 13.962C63.9573 14.0482 63.8869 14.1178 63.9394 14.5167C63.974 14.8459 64.1329 15.0194 64.5187 15.1409C65.7108 15.5221 65.6581 15.2625 65.6581 21.3091C65.6581 24.3241 65.5877 26.8885 65.5005 27.0088C65.43 27.1304 64.975 27.3381 64.5007 27.4596C63.7638 27.6331 63.6419 27.7369 63.5894 28.1358L63.5369 28.6031H72.1473V28.1004C72.1473 27.5458 71.9013 27.39 70.99 27.39C70.5863 27.39 70.2183 27.2342 69.8326 26.8873L69.2712 26.4023V22.0019L69.2533 17.6014L69.7788 16.891C70.4799 15.9376 70.9888 15.5918 71.7949 15.488C72.3563 15.4018 72.5486 15.4703 72.9176 15.8514C73.1804 16.0945 73.4264 16.5276 73.479 16.8214C73.5841 17.3064 73.6546 17.3406 74.3378 17.3406C75.0568 17.3406 75.1094 17.3064 75.3722 16.6302C75.5478 16.2314 75.7234 15.4349 75.7759 14.846C75.863 13.8583 75.8284 13.7545 75.408 13.3556C74.776 12.7844 73.0752 12.6805 72.0576 13.1478Z" fill="#B66429"/>
<path d="M81.9664 13.1655C80.4053 13.5809 79.0031 14.3432 78.8801 14.8636C78.757 15.3309 78.9505 16.7694 79.1787 17.2024C79.3017 17.4455 79.5645 17.514 80.213 17.514H81.0718L81.3345 16.6655C81.7025 15.4005 81.896 15.1232 82.6675 14.7421C84.1581 13.9974 85.7885 14.3786 86.455 15.6259C86.7356 16.1805 87.1035 18.7448 86.9458 19.1436C86.8754 19.2994 86.3319 19.4032 85.0694 19.4728C82.4214 19.6109 80.7027 20.2009 79.3529 21.4305C77.8098 22.8336 77.3188 24.3417 77.8444 26.126C78.2481 27.4772 78.7032 28.0495 79.7555 28.5345C81.4217 29.2968 83.7186 28.9853 85.4552 27.7203C85.8589 27.443 86.1563 27.148 86.1038 27.0795C86.0691 27.0099 86.2088 26.9237 86.4371 26.906C86.7523 26.8883 86.9458 27.0618 87.3137 27.6684C88.0854 28.9676 89.2248 29.2449 91.2947 28.6041C92.6277 28.2053 93.3993 27.5126 93.1891 26.9237C93.0493 26.5945 92.961 26.5768 92.3649 26.7161C91.4178 26.9238 91.2947 26.9072 90.9089 26.5249C90.5756 26.1957 90.5577 25.9526 90.5577 21.9332C90.5577 19.4728 90.4706 17.325 90.3642 16.7869C89.908 14.6735 88.7685 13.3908 87.0318 13.0273C85.7191 12.7501 83.2635 12.8186 81.9664 13.1655ZM86.8766 23.0414C86.8766 25.4322 86.7535 25.6918 85.2629 26.4199C84.2285 26.9391 83.4916 26.9922 82.5444 26.611C81.1242 26.0387 80.6154 24.2026 81.4575 22.7122C82.1419 21.4991 83.316 21.0141 85.5256 20.9964L86.8765 20.9787V23.0414H86.8766Z" fill="#B66429"/>
<path d="M120.493 13.3213C118.318 13.7544 118.249 13.7886 118.301 14.2051C118.336 14.5001 118.512 14.6724 118.915 14.8117C119.231 14.9155 119.582 15.1067 119.705 15.227C120.003 15.5221 120.143 26.1603 119.845 26.6795C119.74 26.8872 119.301 27.1303 118.827 27.2683C118.143 27.476 117.985 27.5799 117.95 27.961L117.899 28.4295H125.984V27.9103C125.984 27.5114 125.913 27.391 125.633 27.391C125.053 27.391 124.09 26.9237 123.896 26.5426C123.615 26.0234 123.545 24.3418 123.528 18.2432V12.8373L123.142 12.855C122.914 12.8717 121.721 13.0794 120.493 13.3213Z" fill="#B66429"/>
</svg>
